<?xml version="1.0" encoding="utf-8"?>
<!-- Generator: Adobe Illustrator 21.1.0, SVG Export Plug-In . SVG Version: 6.00 Build 0)  -->
<svg version="1.1" id="Layer_1" xmlns="http://www.w3.org/2000/svg" xmlns:xlink="http://www.w3.org/1999/xlink" x="0px" y="0px"
	 viewBox="0 0 433.7 421.3" style="enable-background:new 0 0 433.7 421.3;" xml:space="preserve">
<style type="text/css">
	.st0{fill:#FFFFFF;}
	.st1{fill:#FFFFFF;stroke:#231F20;stroke-width:4;stroke-miterlimit:10;}
	.st2{fill:#00BCDA;}
</style>
<path class="st0" d="M342.1,337c-31.4,32.9-75.7,53.5-124.7,53.5S124.1,369.9,92.7,337H58.6c36.2,48.3,94,79.6,158.9,79.6
	s122.6-31.3,158.9-79.6H342.1z"/>
<path class="st1" d="M221.6,218.1"/>
<g>
	<path class="st0" d="M129.5,117.3h23.4v0.7h6v-9.9h3.2v-5.3h-1.4v-6.1h2.9l0.4-0.5v-9.9l-1.1-1.9l1.7-3.1l0.6-2.2
		c0.7-3.3,3.5-12.5,12.3-16.7l0.5-2.3l1-0.6c0.1-0.1,0.9-0.5,2.3-1v-1.7h0.5v-2.2h-0.7v-3h-0.8l0.8-1.2v-2.6h1.7l1-1.5
		c0-0.1,0.1-0.1,0.1-0.2c-0.1-0.2-0.1-0.5-0.1-0.7c-0.1-0.8,0.1-1.6,0.5-2.3c0-0.1,0-0.2-0.1-0.3l-0.2-0.7c-0.2-0.6-0.6-1.9,0.1-3.5
		c0.1-0.3,0.3-0.4,0.4-0.6c0.1-0.9,0.6-2.2,1.8-2.9c0.9-0.5,2-0.5,2.9,0c1.4,0.8,1.7,2.4,2,3.7l0.1,0.6c0.2,1.1,0.5,2.4,0.1,3.5
		c0.3,0.7,0.6,1.8,0.4,2.9c0.1,0.1,0.1,0.2,0.2,0.4h1.1l0.1,1.5h1.6v6.8h-0.7v2.2h0.5v1.8c1,0.3,1.6,0.6,1.7,0.7l1.2,0.6l0.4,2.6
		c7.8,3.9,10.8,11.7,11.8,15.6h0.6l0.9,3.5l0.2,0.3l1.4,2.5l-1.1,2v9.9l0.4,0.4h2.9v6.1h-1.4v5.3h3.1v9.7l25.4-0.1v-2.2h11.6V109
		h4.3v-3.9h1.3v-0.7h1.1v-0.7h1.2V103h1.2v-0.7h1.1l0.2-0.4c0.3-0.4,7.1-9.8,22.4-9.8s22.1,9.4,22.4,9.8l0.2,0.3h1.2v0.8h1.2v0.7
		h1.2v0.7h1v0.7h1.3v3.9h4.3v4.5h30l15.5-1l15.8,1h7.4C360.3,46.8,294.3,0,217.4,0c-35,0-67.7,9.7-95.6,26.5l6.5,9.9L129.5,117.3z"
		/>
	<path class="st0" d="M78.5,109.2V97.1l2.7-0.2l6.1-2.3v1l2.7-1v9.3l-5.7,2.1v3.1l17,8.2v-0.1h8.8l1.1-80.8l3.5-5.3
		C83.5,51.9,59,81.9,45.1,117.3h16.6L78.5,109.2z"/>
</g>
<g>
	<path class="st2" d="M0,278.7l16.8-126.1h22.6l21.3,126.1h-18L38.8,253H21l-3,25.7H0z M29.9,193.6l-0.6-3.3h-1l-0.5,3.3l-4.6,39.8
		h12.7L29.9,193.6z"/>
	<path class="st2" d="M93.2,186.4c-0.1-4.1-0.3-8.7-1.6-12.3c-1.3-3.4-3.2-5.8-6.1-5.8c-4.8,0.2-6.3,5.1-6.1,12.5
		c0.1,4.3,2,8.7,4.9,13.5c2.8,4.8,6.5,9.8,10.2,15.1c4.4,6.3,8.8,12.9,12.2,19.2s5.7,12.9,5.8,19.7c0.1,8.4-1.1,16.3-4.9,22.1
		c-3.8,5.8-10.1,9.6-20.2,9.6c-11.8,0-18.6-4.5-22.5-11.3c-3.9-6.9-4.9-15.9-5.1-25.4l18.1-1.7c0.1,5.3,0.4,10.6,1.8,14.6
		c1.3,4.1,3.4,6.9,7.3,6.9c5.5,0,7.4-5.8,7.3-13.9c-0.1-4.1-2.2-8.9-5-13.9c-1.6-2.4-3.2-5-4.9-7.5c-3.7-5.1-7.7-11-12-17.3
		S65,197.6,63,190.9c-1.1-3.3-1.7-6.7-1.7-10.1c-0.1-6.9,1.3-14.2,5.1-19.9c3.8-5.5,9.8-9.4,18.5-9.6c11.1-0.2,17.7,4.5,21.5,11.1
		c3.7,6.9,4.9,15.3,5,22.3L93.2,186.4z"/>
	<path class="st2" d="M136.4,192.9l0.5,1.2h0.3l0.5-1.2l8.6-40.3h18.2L146.9,225l0.9,53.7h-18.5l-0.9-53.7l-20.1-72.4h18.2
		L136.4,192.9z"/>
	<path class="st2" d="M189.7,213l-1.6-5.8h-1l1.2,71.5h-17l-2.2-126.1h16.5l19.2,65.7l1.6,5.8h1l-1.2-71.5h17l2.2,126.1h-16.5
		L189.7,213z"/>
	<path class="st2" d="M283.1,235.5l0.3,17.3c-0.1,5.1-1,9.8-2.8,13.7c-1.5,3.4-3.8,6.7-7.2,9.3c-3.4,2.7-8,4.3-14.2,4.3
		c-6.2,0-11-1.5-14.5-4.3c-3.5-2.6-5.8-5.8-7.4-9.3c-2-3.9-3.1-8.6-3.3-13.7l-1.3-74.3c0.1-5,1-9.6,2.9-13.5c1.5-3.4,3.7-6.9,7-9.4
		c3.4-2.6,8.2-4.3,14.3-4.3c6.1,0,10.8,1.7,14.3,4.3s5.9,6,7.5,9.4c2,3.9,3.1,8.6,3.3,13.5l0.3,17.3H265l-0.3-17.3
		c-0.1-3.4-1-5.8-2.9-7.9c-0.9-0.9-2.4-1.4-4.3-1.4c-3.3,0-4.8,2.4-5.6,4.6c-0.5,1.4-0.6,2.9-0.8,4.6l1.3,74.3
		c0.2,3.6,1.3,6,3.1,7.9c0.9,0.9,2.1,1.4,3.6,1.4c3.9,0,5.5-2.1,6.3-4.6c0.5-1.2,0.6-2.7,0.6-4.6l-0.3-17.3H283.1z"/>
	<path class="st2" d="M321.4,278.7l-2.2-126.1h14.6c17.1,0,26.5,3.4,31.6,13c5,9.6,5.9,25.4,6.4,50.1c0.4,24.7,0,40.3-4.6,49.9
		c-4.8,9.6-14,13-31.2,13h-14.6V278.7z M339.6,260.2c6.3,0,9.9-0.7,11.7-6.9c0.8-2.9,1.4-7.4,1.5-13.4s-0.1-14.1-0.3-24.4
		c-0.2-10.3-0.3-18.4-0.6-24.4c-0.3-5.8-1-10.3-1.9-13.4c-2-6-5.6-6.7-11.9-6.7L339.6,260.2z"/>
	<path class="st2" d="M429.2,235.5l0.3,17.3c-0.1,5.1-1,9.8-2.8,13.7c-1.5,3.4-3.8,6.7-7.2,9.3c-3.4,2.7-8,4.3-14.2,4.3
		s-11-1.5-14.5-4.3c-3.5-2.6-5.8-5.8-7.4-9.3c-2-3.9-3.1-8.6-3.3-13.7l-1.3-74.3c0.1-5,1-9.6,2.9-13.5c1.5-3.4,3.7-6.9,7-9.4
		c3.4-2.6,8.2-4.3,14.3-4.3s10.8,1.7,14.3,4.3s5.9,6,7.5,9.4c2,3.9,3.1,8.6,3.3,13.5l0.3,17.3h-17.3l-0.3-17.3
		c-0.1-3.4-1-5.8-2.9-7.9c-0.9-0.9-2.4-1.4-4.3-1.4c-3.3,0-4.8,2.4-5.6,4.6c-0.5,1.4-0.6,2.9-0.8,4.6l1.3,74.3
		c0.2,3.6,1.3,6,3.1,7.9c0.9,0.9,2.1,1.4,3.6,1.4c3.9,0,5.5-2.1,6.3-4.6c0.5-1.2,0.6-2.7,0.6-4.6l-0.3-17.3H429.2z"/>
</g>
<g>
	<path class="st0" d="M4.2,274.5L21,148.4h22.6l21.2,126.1h-18l-3.9-25.7H25.2l-3,25.7H4.2z M34.1,189.4l-0.6-3.3h-1l-0.5,3.3
		l-4.6,39.8h12.7L34.1,189.4z"/>
	<path class="st0" d="M97.4,182.2c-0.1-4.1-0.3-8.7-1.6-12.3c-1.3-3.4-3.2-5.8-6.1-5.8c-4.8,0.2-6.3,5.1-6.1,12.5
		c0.1,4.3,2,8.7,4.9,13.5c2.8,4.8,6.5,9.8,10.2,15.1c4.4,6.3,8.8,12.9,12.2,19.2s5.7,12.9,5.8,19.7c0.1,8.4-1.1,16.3-4.9,22.1
		c-3.8,5.8-10.1,9.6-20.2,9.6c-11.8,0-18.6-4.5-22.5-11.3c-3.9-6.9-4.9-15.9-5.1-25.4l18.1-1.7c0.1,5.3,0.4,10.6,1.8,14.6
		c1.3,4.1,3.4,6.9,7.3,6.9c5.5,0,7.4-5.8,7.3-13.9c-0.1-4.1-2.2-8.9-5-13.9c-1.6-2.4-3.2-5-4.9-7.5c-3.7-5.1-7.7-11-12-17.3
		s-7.4-12.9-9.4-19.6c-1.1-3.3-1.7-6.7-1.7-10.1c-0.1-6.9,1.3-14.2,5.1-19.9c3.8-5.5,9.8-9.4,18.5-9.6c11.1-0.2,17.7,4.5,21.5,11.1
		c3.7,6.9,4.9,15.3,5,22.3L97.4,182.2z"/>
	<path class="st0" d="M140.6,188.7l0.5,1.2h0.3l0.5-1.2l8.6-40.3h18.2l-17.6,72.4l0.9,53.7h-18.5l-0.9-53.7l-20.1-72.4h18.2
		L140.6,188.7z"/>
	<path class="st0" d="M193.9,208.8l-1.6-5.8h-1l1.2,71.5h-17l-2.2-126.1h16.5l19.2,65.7l1.6,5.8h1l-1.2-71.5h17l2.2,126.1h-16.5
		L193.9,208.8z"/>
	<path class="st0" d="M287.2,231.3l0.3,17.3c-0.1,5.1-1,9.8-2.8,13.7c-1.5,3.4-3.8,6.7-7.2,9.3c-3.4,2.7-8,4.3-14.2,4.3
		s-11-1.5-14.5-4.3c-3.5-2.6-5.8-5.8-7.4-9.3c-2-3.9-3.1-8.6-3.3-13.7l-1.3-74.3c0.1-5,1-9.6,2.9-13.5c1.5-3.4,3.7-6.9,7-9.4
		c3.4-2.6,8.2-4.3,14.3-4.3c6.1,0,10.8,1.7,14.3,4.3s5.9,6,7.5,9.4c2,3.9,3.1,8.6,3.3,13.5l0.3,17.3h-17.3l-0.3-17.3
		c-0.1-3.4-1-5.8-2.9-7.9c-0.9-0.9-2.4-1.4-4.3-1.4c-3.3,0-4.8,2.4-5.6,4.6c-0.5,1.4-0.6,2.9-0.8,4.6l1.3,74.3
		c0.2,3.6,1.3,6,3.1,7.9c0.9,0.9,2.1,1.4,3.6,1.4c3.9,0,5.5-2.1,6.3-4.6c0.5-1.2,0.6-2.7,0.6-4.6l-0.3-17.3L287.2,231.3L287.2,231.3
		z"/>
	<path class="st0" d="M325.5,274.5l-2.2-126.1h14.6c17.1,0,26.5,3.4,31.6,13c5,9.6,5.9,25.4,6.4,50.1c0.4,24.7,0,40.3-4.6,49.9
		c-4.8,9.6-14,13-31.2,13h-14.6V274.5z M343.7,256c6.3,0,9.9-0.7,11.7-6.9c0.8-2.9,1.4-7.4,1.5-13.4s-0.1-14.1-0.3-24.4
		s-0.3-18.4-0.6-24.4c-0.3-5.8-1-10.3-1.9-13.4c-2-6-5.6-6.7-12-6.7L343.7,256z"/>
	<path class="st0" d="M433.4,231.3l0.3,17.3c-0.1,5.1-1,9.8-2.8,13.7c-1.5,3.4-3.8,6.7-7.2,9.3c-3.4,2.7-8,4.3-14.2,4.3
		s-11-1.5-14.5-4.3c-3.5-2.6-5.8-5.8-7.4-9.3c-2-3.9-3.1-8.6-3.3-13.7l-1.3-74.3c0.1-5,1-9.6,2.9-13.5c1.5-3.4,3.7-6.9,7-9.4
		c3.4-2.6,8.2-4.3,14.3-4.3s10.8,1.7,14.3,4.3s5.9,6,7.5,9.4c2,3.9,3.1,8.6,3.3,13.5l0.3,17.3h-17.3l-0.3-17.3
		c-0.1-3.4-1-5.8-2.9-7.9c-0.9-0.9-2.4-1.4-4.3-1.4c-3.3,0-4.8,2.4-5.6,4.6c-0.5,1.4-0.6,2.9-0.8,4.6l1.3,74.3
		c0.2,3.6,1.3,6,3.1,7.9c0.9,0.9,2.1,1.4,3.6,1.4c3.9,0,5.5-2.1,6.3-4.6c0.5-1.2,0.6-2.7,0.6-4.6l-0.3-17.3L433.4,231.3L433.4,231.3
		z"/>
</g>
<g>
	<polygon class="st2" points="189.1,353.6 191.3,361.4 199.4,361.7 192.7,366.2 194.9,374 188.5,369 181.8,373.6 184.6,366 
		178.2,361 186.3,361.2 	"/>
	<polygon class="st2" points="220.7,353.6 222.9,361.4 231.1,361.7 224.3,366.2 226.6,374 220.2,369 213.5,373.6 216.2,366 
		209.8,361 217.9,361.2 	"/>
	<polygon class="st2" points="252.3,353.6 254.6,361.4 262.7,361.7 256,366.2 258.2,374 251.8,369 245.1,373.6 247.8,366 241.4,361 
		249.6,361.2 	"/>
</g>
</svg>
